<?xml version="1.0" standalone="no"?>
<!DOCTYPE svg PUBLIC "-//W3C//DTD SVG 20010904//EN"
 "http://www.w3.org/TR/2001/REC-SVG-20010904/DTD/svg10.dtd">
<svg version="1.0" xmlns="http://www.w3.org/2000/svg"
 width="280.000000pt" height="280.000000pt" viewBox="0 0 280.000000 280.000000"
 preserveAspectRatio="xMidYMid meet">

<g transform="translate(0.000000,280.000000) scale(0.100000,-0.100000)"
fill="#6c63ff" stroke="none">
<path d="M1315 2568 c-127 -48 -213 -155 -231 -285 -5 -39 -1 -69 16 -125 29
-96 112 -269 200 -418 122 -207 149 -191 345 191 124 243 139 335 75 465 -34
69 -86 120 -159 156 -53 26 -195 35 -246 16z m168 -129 c21 -5 54 -24 74 -42
103 -91 96 -253 -16 -332 -39 -27 -50 -30 -121 -30 -71 0 -82 3 -121 30 -112
79 -119 241 -15 332 20 18 49 35 64 39 15 3 32 7 37 9 21 7 61 5 98 -6z"/>
<path d="M1357 2320 c-38 -30 -51 -84 -30 -127 16 -35 57 -63 93 -63 34 0 79
28 95 60 49 95 -74 196 -158 130z"/>
<path d="M968 1934 c-41 -22 -48 -42 -73 -208 -13 -83 -33 -212 -45 -286 -38
-248 -39 -253 -24 -282 8 -15 23 -32 33 -38 13 -6 210 -10 566 -10 l547 0 29
29 c16 16 29 38 29 50 0 19 -83 560 -99 648 -17 87 -51 113 -151 113 -56 0
-60 -2 -75 -30 -21 -40 -20 -40 25 -40 49 0 85 -16 99 -44 13 -25 40 -184 33
-191 -19 -19 -161 9 -232 45 l-39 20 -16 -29 c-11 -22 -12 -30 -2 -34 15 -5
-15 -44 -107 -142 -61 -66 -66 -69 -77 -50 -23 38 -80 84 -117 95 -20 5 -65
10 -99 10 -35 0 -63 3 -63 8 1 4 34 33 76 65 l74 57 -15 31 -16 30 -52 -43
c-110 -93 -200 -159 -208 -151 -4 4 -4 31 1 58 4 28 14 86 21 130 17 105 43
135 118 135 l50 0 -20 35 c-20 34 -23 35 -82 35 -35 -1 -74 -7 -89 -16z m739
-343 c21 -6 67 -12 103 -14 l65 -3 16 -80 c9 -43 14 -82 12 -86 -5 -9 -417
-11 -426 -2 -10 10 165 205 179 200 7 -3 30 -9 51 -15z m-420 -121 c30 -19
204 -283 194 -293 -5 -4 -121 -7 -258 -5 -235 3 -252 4 -273 23 -35 32 -38 54
-23 159 23 155 5 142 184 136 112 -4 160 -9 176 -20z m636 -173 c6 -26 5 -47
-3 -68 -21 -50 -52 -59 -209 -59 l-139 0 -51 80 c-28 45 -51 83 -51 86 0 2
100 3 222 2 l222 -3 9 -38z"/>
<path d="M2050 952 c-14 -2 -28 -9 -32 -16 -4 -6 -8 -53 -8 -103 0 -51 -3 -93
-7 -93 -5 0 -17 7 -27 15 -52 39 -156 -3 -202 -81 -23 -39 -26 -53 -22 -108 4
-71 34 -122 92 -157 38 -23 113 -25 143 -4 20 14 23 14 32 -2 10 -19 84 -24
102 -6 5 5 8 119 7 278 l-3 269 -25 6 c-14 3 -36 4 -50 2z m-57 -334 c9 -11
17 -28 17 -38 0 -29 -39 -70 -68 -70 -31 0 -72 36 -72 62 0 68 78 98 123 46z"/>
<path d="M504 919 c-14 -5 -36 -38 -62 -91 -149 -309 -182 -380 -182 -398 0
-23 51 -53 83 -48 15 2 31 21 52 60 l30 58 106 0 105 0 29 -60 c31 -64 47 -72
99 -48 48 21 44 39 -75 284 -118 246 -132 263 -185 243z m51 -259 c14 -27 25
-52 25 -55 0 -3 -22 -5 -50 -5 -27 0 -50 4 -50 10 0 10 42 100 47 100 1 0 14
-22 28 -50z"/>
<path d="M951 754 c-76 -38 -106 -87 -106 -175 0 -59 4 -73 30 -111 43 -62
103 -90 181 -86 102 6 172 72 182 168 7 71 -5 116 -41 157 -65 74 -156 92
-246 47z m163 -146 c13 -38 0 -76 -34 -93 -38 -20 -52 -19 -84 6 -48 38 -30
118 29 131 32 7 79 -16 89 -44z"/>
<path d="M2325 768 c-163 -57 -183 -291 -32 -370 51 -26 174 -30 222 -7 35 16
45 61 22 93 -14 18 -18 19 -70 7 -73 -18 -137 -2 -137 35 0 11 22 14 100 14
87 0 103 3 120 20 27 27 27 101 0 146 -39 61 -143 91 -225 62z m109 -111 c10
-7 17 -22 14 -33 -3 -16 -13 -19 -66 -22 -63 -3 -71 1 -49 29 29 37 71 48 101
26z"/>
<path d="M1311 756 c-8 -9 -11 -68 -9 -187 l3 -173 28 -7 c15 -4 39 -4 55 0
27 7 27 8 32 115 5 98 7 110 29 127 30 24 52 24 85 -2 25 -20 26 -24 26 -119
0 -110 7 -124 66 -124 54 0 59 12 59 138 -1 108 -2 116 -30 161 -50 80 -141
109 -199 64 l-27 -22 -15 22 c-18 25 -84 30 -103 7z"/>
</g>
</svg>
