<?xml version="1.0" standalone="no"?>
<!DOCTYPE svg PUBLIC "-//W3C//DTD SVG 20010904//EN"
 "http://www.w3.org/TR/2001/REC-SVG-20010904/DTD/svg10.dtd">
<svg version="1.0" xmlns="http://www.w3.org/2000/svg"
 width="280.000000pt" height="280.000000pt" viewBox="0 0 280.000000 280.000000"
 preserveAspectRatio="xMidYMid meet">

<g transform="translate(0.000000,280.000000) scale(0.100000,-0.100000)"
fill="#000000" stroke="none">
<path d="M1317 2509 c-147 -35 -256 -159 -265 -306 -7 -101 46 -238 192 -496
77 -138 97 -163 131 -168 54 -8 72 8 138 123 90 157 160 299 192 391 23 65 27
88 23 150 -10 150 -105 263 -253 302 -65 17 -101 18 -158 4z m186 -169 c111
-76 126 -221 32 -315 -122 -122 -322 -55 -349 117 -13 80 38 172 117 212 49
25 154 18 200 -14z"/>
<path d="M1343 2265 c-70 -30 -82 -129 -22 -179 52 -44 141 -28 167 29 28 60
8 121 -48 150 -35 18 -55 18 -97 0z"/>
<path d="M922 1855 c-16 -14 -32 -35 -35 -47 -10 -40 -107 -654 -107 -676 0
-34 20 -67 50 -85 25 -15 82 -17 560 -17 454 0 535 2 560 15 36 19 50 43 50
89 0 61 -100 667 -115 695 -19 37 -55 51 -134 51 -67 0 -67 0 -84 -35 -9 -20
-17 -38 -17 -40 0 -3 24 -5 54 -5 76 0 93 -17 111 -113 22 -118 27 -110 -60
-105 -56 4 -90 12 -135 35 l-61 30 -14 -28 c-8 -15 -12 -34 -9 -42 3 -9 -28
-53 -78 -111 -82 -96 -83 -96 -98 -74 -46 71 -102 98 -200 98 -38 0 -70 3 -70
8 1 4 34 33 75 65 l74 58 -17 29 c-9 17 -20 30 -23 30 -4 0 -60 -43 -125 -95
-66 -52 -122 -95 -126 -95 -11 0 -10 11 11 144 24 147 38 166 118 166 57 0 61
5 38 50 -15 29 -18 30 -89 30 -65 0 -78 -3 -104 -25z m773 -340 c33 -8 81 -15
106 -15 l46 0 11 -77 c6 -43 9 -79 8 -81 -2 -1 -96 -1 -209 0 l-206 3 80 93
c44 50 85 92 92 92 7 -1 39 -7 72 -15z m-455 -110 c19 -10 62 -64 120 -150 49
-74 90 -137 90 -140 0 -3 -114 -5 -252 -5 -267 1 -272 2 -297 48 -10 19 -9 46
5 143 l18 119 143 0 c110 0 151 -4 173 -15z m648 -197 c3 -40 -1 -52 -22 -73
-25 -24 -28 -25 -174 -25 l-149 0 -35 53 c-19 28 -40 62 -47 75 l-12 22 218
-2 218 -3 3 -47z"/>
<path d="M2010 883 c-26 -10 -30 -25 -30 -121 l0 -93 -32 17 c-102 53 -229
-48 -229 -181 0 -64 16 -100 69 -147 51 -46 100 -56 152 -30 33 16 39 17 47 3
12 -19 87 -21 105 -3 10 10 13 75 13 273 0 246 -1 261 -19 275 -20 14 -49 17
-76 7z m-56 -328 c26 -27 29 -56 9 -84 -29 -38 -74 -40 -102 -5 -25 32 -26 52
-5 82 18 26 74 30 98 7z"/>
<path d="M473 850 c-16 -7 -52 -69 -129 -227 -121 -249 -128 -273 -91 -298 14
-9 38 -15 54 -13 23 2 34 14 58 60 l30 58 106 0 106 0 26 -60 c23 -55 28 -60
57 -60 39 0 80 26 80 51 0 26 -226 489 -238 489 -6 0 -16 2 -24 4 -7 3 -23 1
-35 -4z m52 -260 l25 -50 -50 0 -50 0 16 38 c9 20 18 43 21 50 8 19 11 16 38
-38z"/>
<path d="M940 699 c-106 -42 -158 -163 -115 -267 63 -150 273 -167 359 -28 66
107 22 241 -96 290 -42 18 -110 20 -148 5z m129 -145 c29 -36 26 -60 -9 -96
-25 -24 -36 -29 -58 -23 -41 10 -62 34 -62 72 0 70 86 101 129 47z"/>
<path d="M2287 695 c-78 -27 -127 -101 -127 -190 0 -136 104 -217 258 -200 84
9 117 37 101 84 -6 17 -15 34 -21 37 -5 3 -37 0 -71 -6 -55 -11 -67 -11 -95 4
-18 9 -32 23 -32 31 0 12 19 15 103 15 91 0 106 2 122 20 24 26 23 99 -2 143
-38 66 -146 95 -236 62z m114 -105 c22 -12 26 -48 5 -56 -7 -3 -38 -4 -67 -2
l-54 3 32 33 c33 34 52 39 84 22z"/>
<path d="M1282 688 c-8 -8 -12 -64 -12 -185 l0 -173 28 -11 c16 -6 39 -7 57
-2 l30 9 5 106 c6 120 16 141 71 141 54 0 69 -29 69 -137 0 -50 4 -97 8 -104
5 -7 25 -15 44 -18 28 -5 40 -2 57 15 18 18 21 33 21 109 0 48 -5 105 -11 127
-30 111 -141 167 -226 115 -25 -15 -33 -16 -33 -6 0 26 -85 37 -108 14z"/>
</g>
</svg>
